<?xml version="1.0" encoding="UTF-8"?>
<svg version="1.1" viewBox="0 0 2048 1198" width="306" height="179" xmlns="http://www.w3.org/2000/svg">
<path transform="translate(376,13)" d="m0 0h1660l-1 10-6 23-16 47-11 25-11 22-10 17-12 18-12 16-12 14-16 16-11 9-17 13-22 13-25 12-33 11-29 6-18 2-16 1-357 1v730l-1 57-1 13-4 6-12 11-18 14-15 10-21 12-27 13-28 10-32 9-44 10-43 7-38 5-23 2h-21l-1-2-1-14-1-76v-818h-25l-125-1h-555l-2-2-1-6v-29l1-55 1-176 2-5z" fill="#FEFEFE"/>
<path transform="translate(607,393)" d="m0 0h338l2 1 1 3v359l-1 32-5 48-6 31-8 31-12 36-10 23-10 19-11 18-11 16-20 25-12 14-26 26-11 9-10 8-18 13-19 12-26 15-23 12-16 7-25 9-28 8-34 8-40 7-42 5-30 2-33 1h-220l-228-1-1-1-1-121v-139l1-1 19-1 354-1 23-1 37-3 19-3 24-7 19-7 16-8 16-10 11-9 8-7 9-11 9-13 9-16 8-17 7-21 3-19 2-13 1-23-1-129v-41l1-174z" fill="#FEFEFE"/>
</svg>
